<svg xmlns="http://www.w3.org/2000/svg" viewBox="0 0 141.73 39.56"><g data-name="Calque 2"><g data-name="Calque 1"><g data-name="Calque 2"><g data-name="Calque 1-2"><path d="M135.11 30.64h-12.47a4.12 4.12 0 01-4.21-4V14.91a4.11 4.11 0 014.21-4h12.47a4.11 4.11 0 014.21 4v11.73a4.12 4.12 0 01-4.21 4zm-12.47-18.36a2.75 2.75 0 00-2.84 2.63v11.73a2.75 2.75 0 002.84 2.63h12.47a2.74 2.74 0 002.89-2.63V14.91a2.74 2.74 0 00-2.84-2.63z" fill="#30cebb"/><path d="M122.51 30.43h13.48v1.37h-13.48zm14.14-11.89v-3.29a1.92 1.92 0 00-2-1.84h-11.56a1.92 1.92 0 00-2 1.84V26a1.91 1.91 0 002 1.83h11.57a1.91 1.91 0 002-1.83v-3.49h-3.81v-4zm-5.13 2.79h-1a3.58 3.58 0 01-.56 1.37l.72.72-.91.91-.72-.72a3.58 3.58 0 01-1.37.56v1h-1.29v-1a3.54 3.54 0 01-1.36-.56l-.73.72-.91-.91.72-.72a3.58 3.58 0 01-.56-1.37h-1V20h1a3.54 3.54 0 01.56-1.36l-.72-.73.91-.91.73.73a3.41 3.41 0 011.36-.57v-1h1.29v1a3.45 3.45 0 011.37.57l.72-.73.91.91-.72.73a3.54 3.54 0 01.54 1.36h1z" fill="#30cebb"/><path d="M127.94 19a2 2 0 00-2.63 2.64 1.6 1.6 0 00.79.79 2 2 0 002.64-2.63 1.72 1.72 0 00-.8-.8z" fill="#30cebb"/><path d="M133.53 7.35c0-4.29-2.75-7-7.25-7.3-1-.06-4.07-.07-6.07 0-1.16 0-2.37 1.07-4.76 3.2l-.9.79a35.22 35.22 0 00-2.64 2.5c-1.15 1.19-1.53 1.84-1.51 2.52s0 2.31 0 4.09v2.69a8.15 8.15 0 001.75 4.7 6 6 0 004.51 2.61l.07-2.84c-1.68 0-3.49-2.66-3.49-4.47v-5.07a.7.7 0 01.7-.7h5.34a1 1 0 001-1V3l.16-.08c2-.07 4.85-.05 5.69 0 3 .18 4.57 1.69 4.6 4.47v1.95h2.83v-.88c0-.3-.03-.79-.03-1.11zm5.32-3.29h.57l.63.88h.56l-.68-1a.77.77 0 00.56-.82.79.79 0 00-.26-.66 1.41 1.41 0 00-.85-.2h-1v2.68h.45zm0-1.35h.55a.87.87 0 01.5.1.43.43 0 01.14.36.48.48 0 01-.14.37.82.82 0 01-.51.11h-.54z" fill="#005151"/><path d="M139.31 6.07a2.33 2.33 0 001.69-.71 2.44 2.44 0 00.68-2.1 2.25 2.25 0 00-.43-1.06 2.36 2.36 0 00-2-1 2.29 2.29 0 00-1.71.72 2.36 2.36 0 00-.71 1.72 2.36 2.36 0 00.7 1.71 2.28 2.28 0 001.78.72zm-1.48-3.93a2.1 2.1 0 013 0 2.14 2.14 0 01.59 1.86 2 2 0 01-.37.93 2.06 2.06 0 01-1.73.9 2 2 0 01-1.49-.63 2.08 2.08 0 01-.61-1.51 2.09 2.09 0 01.61-1.55zM13.35 9.84a4.18 4.18 0 013.2 1.28 5 5 0 011.19 3.54v5.53a1.39 1.39 0 01-.41 1 1.44 1.44 0 01-1 .41 1.41 1.41 0 01-1.48-1.46v-5.1a2.68 2.68 0 00-.6-1.84 2.05 2.05 0 00-1.63-.68 2.09 2.09 0 00-1.65.68 2.7 2.7 0 00-.6 1.84v5.1A1.41 1.41 0 019 21.65h-.13a1.45 1.45 0 01-1.06-.41 1.39 1.39 0 01-.41-1v-5.1a2.68 2.68 0 00-.6-1.84 2.08 2.08 0 00-1.64-.68 2.08 2.08 0 00-1.64.68 2.64 2.64 0 00-.61 1.84v5.1a1.42 1.42 0 01-.41 1 1.41 1.41 0 01-1 .41 1.42 1.42 0 01-1-.41 1.46 1.46 0 01-.4-1v-8.7a1.43 1.43 0 01.4-1 1.36 1.36 0 011-.41 1.42 1.42 0 011 .36 1.46 1.46 0 01.46 1 3.64 3.64 0 011.34-1.15 4 4 0 011.82-.41 4.32 4.32 0 012.17.54 3.72 3.72 0 011.47 1.55 4.4 4.4 0 011.46-1.51 4 4 0 012.13-.67zm16.51.23a1.29 1.29 0 011.14.53 1.48 1.48 0 01.05 1.4l-4.12 11c-.87 2.35-2.28 3.53-4.25 3.53a3.9 3.9 0 01-2.09-.53 1.56 1.56 0 01-.87-1.36 1.22 1.22 0 01.34-.85 1.16 1.16 0 01.91-.36 3 3 0 01.88.19 3.11 3.11 0 001 .19 1.2 1.2 0 00.93-.41 4.41 4.41 0 00.74-1.4l.09-.29-4.38-9.51a1.57 1.57 0 010-1.55 1.39 1.39 0 011.24-.59 1.28 1.28 0 01.94.33 3.64 3.64 0 01.65 1.11l2.87 6.6 2.39-6.67a2.48 2.48 0 01.59-1 1.32 1.32 0 01.95-.36zM40 9.84a5.1 5.1 0 013.92 1.73 6.22 6.22 0 011.56 4.32 6.73 6.73 0 01-.48 2.43 5.82 5.82 0 01-1.18 1.91A5.31 5.31 0 0140 21.89a4.4 4.4 0 01-3.5-1.58v4.77a1.41 1.41 0 01-1.5 1.48 1.42 1.42 0 01-1.48-1.33V11.54a1.42 1.42 0 01.41-1 1.62 1.62 0 012.07-.11 1.38 1.38 0 01.47.91A4.35 4.35 0 0140 9.84zm-.48 9.33a2.79 2.79 0 002.17-1 3.29 3.29 0 00.86-2.31 3.48 3.48 0 00-.86-2.38 2.92 2.92 0 00-4.12-.21l-.21.21a3.48 3.48 0 00-.86 2.38 3.33 3.33 0 00.86 2.31 2.8 2.8 0 002.16 1zm19.41-4.26a1.69 1.69 0 01-.45 1.23 1.61 1.61 0 01-1.27.45h-6.77a3.27 3.27 0 001.09 2 3.06 3.06 0 002.14.76 4.48 4.48 0 001.1-.13 4.06 4.06 0 00.83-.28 6 6 0 01.63-.29 1.74 1.74 0 01.6-.13 1.19 1.19 0 01.84.31 1 1 0 01.32.81c0 .65-.42 1.18-1.27 1.62a6.92 6.92 0 01-3.14.65 6.08 6.08 0 01-2.45-.48 5.69 5.69 0 01-3.21-3.21 6.08 6.08 0 01-.46-2.35 6.35 6.35 0 01.73-3 5.52 5.52 0 012.08-2.18 6 6 0 013.08-.81 6 6 0 012.36.45 4.89 4.89 0 011.77 1.17 5.28 5.28 0 011.06 1.62 4.81 4.81 0 01.39 1.79zm-5.67-2.61a2.49 2.49 0 00-1.78.67 3.29 3.29 0 00-1 1.79H56a3 3 0 00-.94-1.82 2.63 2.63 0 00-1.8-.64zm7.45 3.55a5.95 5.95 0 015.94-6 5.73 5.73 0 014.22 1.76 5.85 5.85 0 011.74 4.25 6 6 0 01-.8 3 5.78 5.78 0 01-2.16 2.2 6 6 0 01-8.94-5.23zm8.1 2.36a3.41 3.41 0 00.86-2.36 3.36 3.36 0 00-.86-2.34 2.76 2.76 0 00-2.15-.94 2.8 2.8 0 00-2.18.95 3.33 3.33 0 00-.87 2.33 3.42 3.42 0 00.87 2.36 2.81 2.81 0 002.18 1 2.75 2.75 0 002.15-1zm12.7-8.37a5.09 5.09 0 013.91 1.73A6.16 6.16 0 0187 15.89a6.53 6.53 0 01-.44 2.43 5.69 5.69 0 01-1.17 1.91 5.31 5.31 0 01-1.75 1.22 5 5 0 01-2.12.44A4.4 4.4 0 0178 20.31v4.77a1.46 1.46 0 01-.4 1.07 1.42 1.42 0 01-1 .41 1.41 1.41 0 01-1.48-1.33V11.54a1.39 1.39 0 01.41-1 1.62 1.62 0 012.06-.06 1.41 1.41 0 01.46.91 4.39 4.39 0 013.46-1.55zM81 19.17a2.81 2.81 0 002.17-1 3.28 3.28 0 00.85-2.31 3.47 3.47 0 00-.85-2.38 2.92 2.92 0 00-4.12-.21l-.22.21a3.48 3.48 0 00-.83 2.43 3.33 3.33 0 00.86 2.31 2.81 2.81 0 002.14.95zm8.77-12.61a1.46 1.46 0 01.4-1 1.37 1.37 0 011-.4 1.39 1.39 0 011.48 1.45v13.58a1.46 1.46 0 01-2.46 1.1 1.41 1.41 0 01-.45-1.1zm17.02 8.35a1.65 1.65 0 01-.44 1.23 1.71 1.71 0 01-1.27.45h-6.77a3.31 3.31 0 001.08 2 3.1 3.1 0 002.15.76 4.53 4.53 0 001.1-.13 3.78 3.78 0 00.82-.28c.21-.11.42-.2.64-.29a1.74 1.74 0 01.6-.13 1.19 1.19 0 01.84.31 1.07 1.07 0 01.32.81c0 .65-.42 1.18-1.27 1.62a6.92 6.92 0 01-3.14.65 6.05 6.05 0 01-2.45-.5 5.74 5.74 0 01-3.22-3.21 6.07 6.07 0 01-.45-2.35 6.35 6.35 0 01.73-3 5.52 5.52 0 012.08-2.18 6 6 0 013.08-.81 6 6 0 012.36.45 4.89 4.89 0 011.77 1.17 5.28 5.28 0 011.06 1.62 4.62 4.62 0 01.38 1.81zm-5.67-2.61a2.51 2.51 0 00-1.78.67 3.36 3.36 0 00-1 1.79h5.51a3.07 3.07 0 00-.94-1.82 2.64 2.64 0 00-1.79-.64z" fill="#005151"/><path d="M84.25 25.31a.56.56 0 01.58.54v12.89a.54.54 0 01-.17.43.51.51 0 01-.41.17.56.56 0 01-.44-.17.58.58 0 01-.18-.43v-1.37A4.6 4.6 0 0182 39a4.21 4.21 0 01-2.21.59 4.46 4.46 0 01-3.39-1.48 5.18 5.18 0 01-1.37-3.64 5.47 5.47 0 01.61-2.57 4.66 4.66 0 011.75-1.9 4.55 4.55 0 012.44-.67 4.17 4.17 0 012.21.57 4.54 4.54 0 011.6 1.57V25.9a.52.52 0 01.17-.42.64.64 0 01.44-.17zm-6.92 12A3.42 3.42 0 0080 38.44a3.39 3.39 0 002.62-1.17 4.13 4.13 0 001-2.84 4 4 0 00-1-2.81A3.39 3.39 0 0080 30.48a3.44 3.44 0 00-2.64 1.15 4 4 0 00-1.06 2.8 4.1 4.1 0 001.06 2.83zM87.37 37a5.52 5.52 0 010-5.12A4.74 4.74 0 0189.13 30a4.82 4.82 0 016.74 1.85 5.52 5.52 0 010 5.12 4.8 4.8 0 01-8.5 0zm6.89.26a4.13 4.13 0 001-2.84 4 4 0 00-1-2.81 3.61 3.61 0 00-5.26 0 4 4 0 00-1.06 2.8A4.13 4.13 0 0089 37.26a3.42 3.42 0 002.64 1.18 3.35 3.35 0 002.62-1.18zm9.31-7.9a5.22 5.22 0 012.24.45c.65.31 1 .64 1 1a.4.4 0 01-.13.31.47.47 0 01-.35.13 1.06 1.06 0 01-.43-.12c-.17-.08-.36-.17-.54-.27a3.18 3.18 0 00-.77-.26 4.31 4.31 0 00-1.08-.12 3.6 3.6 0 00-2.75 1.14 4 4 0 00-1.07 2.82 4 4 0 001.07 2.84 3.58 3.58 0 002.75 1.16 4.83 4.83 0 001.08-.12 3.71 3.71 0 00.77-.27l.54-.27a1.06 1.06 0 01.43-.12.56.56 0 01.35.13.44.44 0 01.13.34c0 .35-.33.67-1 1a5.27 5.27 0 01-2.25.45 5.12 5.12 0 01-2.67-.69A4.76 4.76 0 0199.07 37a5.56 5.56 0 010-5.12 4.8 4.8 0 011.82-1.88 5.24 5.24 0 012.68-.64z" fill="#30cebb"/></g></g></g></g></svg>