<svg xmlns="http://www.w3.org/2000/svg" width="32" height="32" fill="none" viewBox="0 0 32 32">
  <path fill="#30CEBB" d="M17.919 18.986c.398-.075.81-.03 1.181.133.351.17.635.454.805.805a2.013 2.013 0 01-2.657 2.647 1.61 1.61 0 01-.795-.795 2.013 2.013 0 011.466-2.79z"/>
  <path fill="#30CEBB" fill-rule="evenodd" d="M27.865 18.656v-3.31a1.933 1.933 0 00-2.013-1.852H14.22a1.931 1.931 0 00-2.012 1.851v10.818a1.922 1.922 0 002.012 1.842h11.643a1.922 1.922 0 002.013-1.842v-3.512h-3.834v-4.025l3.824.03zm-5.162 2.808h-1.007c-.09.494-.282.963-.563 1.379l.724.724-.915.916-.725-.725a3.602 3.602 0 01-1.379.564v1.006H17.54v-1.006a3.563 3.563 0 01-1.368-.564l-.735.725-.916-.916.725-.724a3.602 3.602 0 01-.564-1.38h-1.006v-1.338h1.006c.09-.49.282-.956.564-1.368l-.725-.735.916-.916.735.735a3.432 3.432 0 011.368-.574v-1.006h1.298v1.006c.496.09.966.285 1.379.574l.725-.735.915.916-.724.735c.274.413.46.88.543 1.368h1.006l.02 1.339z" clip-rule="evenodd"/>
  <path fill="#30CEBB" fill-rule="evenodd" d="M10.818 29.693a4.146 4.146 0 002.818 1.14V32H27.2v-1.243a4.146 4.146 0 003.351-3.95V15.003a4.136 4.136 0 00-4.237-4.025H13.766a4.136 4.136 0 00-4.236 4.025v11.804a4.146 4.146 0 001.288 2.886zm2.948-17.337a2.767 2.767 0 00-2.857 2.647v11.804a2.767 2.767 0 002.857 2.647h12.55a2.758 2.758 0 002.908-2.647V15.003a2.757 2.757 0 00-2.858-2.646h-12.6z" clip-rule="evenodd"/>
  <path fill="#005151" d="M24.725 7.395c0-4.317-2.767-7.044-7.296-7.346-1.006-.06-4.095-.07-6.108 0-1.167 0-2.385 1.077-4.79 3.22l-.906.795A35.443 35.443 0 002.97 6.58c-1.158 1.198-1.54 1.852-1.52 2.536.02.684 0 2.325 0 4.116v2.707a8.202 8.202 0 001.761 4.73 6.038 6.038 0 004.539 2.626l.07-2.858c-1.69 0-3.512-2.677-3.512-4.498v-5.102a.705.705 0 01.704-.704h5.374a1.006 1.006 0 001.007-1.007V3.018l.16-.08c2.013-.071 4.881-.051 5.727 0 3.018.18 4.598 1.7 4.629 4.498v1.962h2.848v-.886c0-.302-.03-.795-.03-1.117z"/>
</svg>
